<svg xmlns="http://www.w3.org/2000/svg" viewBox="0 0 32 32" width="64" height="64"><path d="M20.952 24.032l-.853 1.418-.278 4.622c0 .513-1.713.928-3.819.928s-3.819-.415-3.819-.928l-.351-4.576-.902-1.464c2.494.997 7.625.963 10.022 0zM9.091 9.433l.823 7.233c.357-1.153 1.259-2.709 2.421-3.181.381-.156.769-.156 1.132.052.315.173.581.536.611.68.073.375-.121.524-.272.524-.182 0-.321-.265-.412-.421-.248-.421-.623-.438-1.023-.161-.418.288-.781.772-1.035 1.193a6.63 6.63 0 00-.726 1.625c-.091.323-.175.841-.036 1.147.061.127.151.207.297.207.303 0 .744-.38.956-.582.272-.259.623-.663.756-.922l.315-.893c.157-.392.599-.323.599 0 0 .588-.224.784-.605 2a174.06 174.06 0 00-.46 1.487c-.042.161-.206.432-.381.432-.073 0-.127-.023-.157-.069-.061-.081-.054-.305-.048-.363.012-.184.381-1.279.442-1.452a7.36 7.36 0 01-.387.38c-.327.294-.853.68-1.301.68a.766.766 0 01-.466-.138l.46 4.588c.121.288 2.372.986 5.337.986 2.971 0 5.222-.703 5.337-.986l.66-5.452c-.345.3-.744.669-1.186.853-.327.133-1.053.219-1.053-.329 0-.3.551-.853.871-1.239.085-.098.284-.34.284-.467 0-.167-.363-.127-.708.144a3.355 3.355 0 00-.526.559c-.26.346-.399.645-.514.893-.375.818-.248.496-.551 1.268-.303.767-.254.68-.315.807a.563.563 0 01-.242.259.38.38 0 01-.369-.017c-.054-.035-.079-.11-.079-.213 0-.052.006-.104.018-.156.091-.352.472-1.043.908-1.977.097-.213.061-.15.048-.133-.375.346-.66.513-.871.605-.351.15-.787.15-.877-.236-.006-.023-.006-.046-.012-.069-.714.53-1.471.674-1.21-.467-.278.473-.762.859-1.356.859-.248 0-.43-.081-.52-.294-.139-.317.079-.859.278-1.372.103-.259.242-.571.43-.934.097-.196.254-.311.46-.259a.532.532 0 01.097.04c.157.104.097.259.018.415-.23.432-.43.749-.563 1.199-.054.19-.121.519.091.519a.728.728 0 00.418-.138c.278-.196.502-.49.672-.778.121-.207.266-.478.339-.709.03-.098.067-.19.109-.277.067-.144.157-.294.315-.294.079 0 .145.029.194.086.103.127.079.259.024.398-.121.323-.284.611-.418.962-.079.202-.163.461-.163.674 0 .196.224.15.412.069.145-.063.29-.161.412-.259.073-.282.054-.219 1.598-3.931.079-.19.224-.271.369-.271a.34.34 0 01.194.063c.103.075.103.236.061.357-.042.11-.036.075-.272.605-.315.697-.52 1.199-.799 1.839-.115.265-.466 1.089-.526 1.285-.036.127-.079.334.061.334.327 0 1.168-.755 1.398-.98.012-.017.03-.023.054-.035.036-.11.073-.213.103-.317.085-.219.163-.473.321-.651.048-.058.103-.092.163-.092.169 0 .254.069.254.231 0 .063-.042.294-.067.357.085-.086.175-.173.272-.259.908-.801 1.555-.392 1.555.012 0 .426-.539 1.02-.835 1.349-.097.11-.297.311-.303.369 0 .075.054.104.133.104.121 0 .387-.202.484-.271.303-.225.714-.571 1.005-.813l.896-7.884c-1.851.987-11.963.993-13.821.013zm13.9-.489c0 1.21-13.991 1.21-13.991 0 0-.507 3.135-.916 6.996-.916.545 0 1.077.006 1.592.023l.757-2.606 3.715-4.412c.085-.081.351-.012.599.202.248.213.399.455.321.536l-.006.006-3.474 4.18-.6 2.145c2.415.15 4.091.467 4.091.842zm-4.2.265c0-.046-.054-.086-.151-.121l-.012.046c0 .075-.303.138-.672.138-.369 0-.672-.063-.672-.138 0-.006 0-.012.006-.017l.012-.04c-.109.035-.182.081-.182.133 0 .121.375.213.829.213.467.005.842-.093.842-.214z"/></svg>