<svg version="1.0" xmlns="http://www.w3.org/2000/svg" width="1538.667" height="1706.667" viewBox="0 0 1154 1280" display="block" transform="scale(-1 1)"><path d="M1083.9 2c-7.8 4.1-9.9 8.4-18.4 38-7.2 24.9-14.6 41.9-33.2 75.9-26.7 48.8-74.3 121.3-109.4 166.7-4.2 5.5-8.4 10.6-9.2 11.3-1.2 1-2.8.9-7.9-.4-8.9-2.4-23.7-1.7-29.5 1.3-5 2.6-10 8.4-11.3 13.2-1.3 4.5-1.2 15.2.1 21 .5 2.5 3.2 9.1 6 14.8 3.5 7.1 4.8 10.6 4.1 11.5-.5.6-9.9 12.9-20.8 27.2-118.2 155.3-216.3 281.4-243.4 313-5.2 6-16.6 18.9-25.4 28.5-8.7 9.6-19.8 22-24.5 27.5-45.5 53.2-158.7 169.1-235.2 241-32.8 30.9-21.9 21.4-178.4 153-76.4 64.2-140.6 118.2-142.7 119.9-2.8 2.4-3.6 3.7-3.1 5.4.4 1.6 1.2 2.1 3.7 2 3 0 29.9 4.1 39.9 6.2 9.6 2 11.2 1.5 25.2-7.5 14.7-9.5 69.8-52.2 81.3-63 2.6-2.4 16.2-13.3 30.2-24.1C347.8 1056.2 494.2 918.3 636.6 756c79.8-91 170.4-204.2 265.6-332.1l20.5-27.6 7.8 3.8c12 5.8 22.1 8.2 33 7.7 9.6-.5 13.7-1.9 18.8-6.7 10.1-9.3 9.9-25.9-.4-46-2.7-5.3-4.7-10.2-4.4-10.9.7-1.8 34.2-54.2 45.5-71.2 14.8-22.1 21.1-32.4 30.9-49.7 27.2-48.5 71.6-135.2 98.3-192l2-4.3-2.2-2.7c-6.2-8-26.6-16.6-53.5-22.7-8.8-2-10.1-2-14.6.4zm17.2 4.7c.4.4-2.4.8-6.4.9-4.8 0-8.3.6-10.5 1.8-4.4 2.3-5.1 1.4-1.7-2 2.6-2.6 3-2.7 10.2-2.1 4.2.3 7.9.9 8.4 1.4zm21 5.4c11.7 3.8 23.3 9.9 19 9.9-.8 0-12.8-5-26.6-11-4.1-1.8 1.1-1 7.6 1.1zM1149 28c0 3-31.8 67.5-32.8 66.5-.3-.2 4.7-11.6 11.1-25.2 6.4-13.7 13.4-28.7 15.6-33.6 2.2-4.8 4.5-8.7 5.1-8.7.5 0 1 .4 1 1zm-105.9 205.8c-3.1 6.2-14.9 24.2-15.8 24.2-.3 0 1-2.6 2.7-5.8 4-7 15-24.2 15.6-24.2.2 0-.9 2.6-2.5 5.8zm-139.4 63.4c3.1.7 5.3 1.8 5.3 2.6 0 .9-.8.8-3.2-.4-2.4-1.3-5.9-1.8-12.8-1.8-8.4-.1-10 .2-14 2.4-11.6 6.5-12.8 19.6-3.5 39.7 3.8 8.3 4 8.7 2.5 7.8-1.5-.9-6.9-12-8.6-17.4-3-10-1.3-22.3 3.9-28 5.3-5.8 17.9-7.8 30.4-4.9zM917 302c0 .5-.9 1-2.1 1-1.1 0-1.7-.5-1.4-1 .3-.6 1.3-1 2.1-1s1.4.4 1.4 1zm12.3 5.6c11.9 6.1 30 22.2 39.9 35.4 11.2 15 16.2 26.9 16.2 39 .1 10.3-2.7 15.4-10.3 19.2-4.4 2.3-6.8 2.8-12.6 2.8-7.4 0-20.4-2.8-25.2-5.4-4-2.2-1.2-1.9 4.7.4 17 6.7 33.7 4 40.1-6.4 2.6-4.3 2.6-14.7-.2-22.9-7.2-21.5-23.5-41.1-46.9-56.4-4.7-3.1-8.9-6-9.4-6.5-1.6-1.3.2-.9 3.7.8zm46.7 30.8c0 2.2-1.9 3-3.5 1.6-2.2-1.8-1.8-3 1-3 1.5 0 2.5.6 2.5 1.4zm-77 8.6c1.2.8 1.1 1-.7 1-1.3 0-2.3-.5-2.3-1 0-1.3 1.1-1.3 3 0zm-3.9 4.4c10.6 3.2 31 16 29.5 18.4-.4.7-3.3-.5-7.9-3.5-9.3-5.9-22.5-12.3-24.2-11.7-1.9.8-39.4 49.1-85.5 110.4-5.2 6.9-19.7 25.8-32.4 42-188.5 242-386.8 449.5-606.1 634.6-14.3 12-49.8 41.2-78.9 64.9-51 41.4-68.7 56.6-67.5 57.9.9 1 10.8 2.6 15.8 2.6 5.1 0 7.7 1.2 6.7 2.9-.9 1.5-4.3 1.4-18.3-.4-12-1.6-13.8-2.2-12.5-4 1.5-2.2 22-19.2 52.7-43.5 69.6-55.3 144.5-119 212.5-180.9C482.1 856.4 675.1 640.7 854.4 398c28.1-38.1 35.5-48 35.9-48 .1 0 2.3.6 4.8 1.4zm14.4.6c.3.5.2 1-.4 1-.5 0-1.3-.5-1.6-1-.3-.6-.2-1 .4-1 .5 0 1.3.4 1.6 1zm9.5 5c.8.5 1.1 1.2.7 1.6-.4.4-1.5 0-2.4-.9-1.8-1.8-.8-2.3 1.7-.7zm9.5 7c.3.5.2 1-.4 1-.5 0-1.3-.5-1.6-1-.3-.6-.2-1 .4-1 .5 0 1.3.4 1.6 1zm10.7 9.4c1.6 2.4.7 2.6-2.2.4-1.6-1.2-3-2.6-3-3 0-1 4.2 1.1 5.2 2.6zm-8.2 1.1c.7.8 1 2.1.7 2.8-.3.8-13.2 18.5-28.8 39.3-140.8 188.9-251.6 322.9-367 443.9-28.9 30.4-92.2 93.4-119.4 119-90.9 85.5-188.3 166.9-294 245.5-48 35.8-61.6 45.3-65.6 46-7.6 1.4-7.6-2.6 0-4.8 9.6-2.9 56.7-37.7 136.1-100.6 120.8-95.7 187.7-154.6 283.4-249.5 102.8-101.9 191-202.3 306.2-348.1 55.4-70.1 132.5-172.5 140.1-185.9 5.7-10.1 6-10.4 8.3-7.6zm3.4 9.6c-3.3 3.5-3.8 3.6-2.3.6 1.8-3.5 3.1-4.7 4.1-4.1.5.3-.3 1.9-1.8 3.5zm-6 8.3c-.3.9-1 1.3-1.6 1-.5-.3-.4-1.2.3-2 1.5-1.8 2.2-1.3 1.3 1zM837 414c-1.6 3-28.9 39.3-46.1 61.5-15.1 19.4-25.4 31.6-20.7 24.5 5.7-8.6 66.6-88 67.5-88 .2 0-.1.9-.7 2z"/></svg>